<?xml version="1.0" encoding="utf-8"?>
<!-- Generator: Adobe Illustrator 19.0.0, SVG Export Plug-In . SVG Version: 6.00 Build 0)  -->
<svg version="1.0" id="Layer_1" xmlns="http://www.w3.org/2000/svg" xmlns:xlink="http://www.w3.org/1999/xlink" x="0px" y="0px"
	 viewBox="0 0 94.1 83.8" style="enable-background:new 0 0 94.1 83.8;" xml:space="preserve">
<style type="text/css">
	.st0{fill:#B45A7F;}
	.st1{fill:#D794AE;}
	.st2{fill:#81215E;}
</style>
<g>
	<path class="st0" d="M68,5.9c0,3-2.4,5.4-5.4,5.4c-3,0-5.4-2.4-5.4-5.4c0-3,2.4-5.4,5.4-5.4C65.6,0.5,68,2.9,68,5.9L68,5.9z"/>
	<path class="st1" d="M29.6,13.6c0,3-2.4,5.4-5.4,5.4c-3,0-5.4-2.4-5.4-5.4c0-3,2.4-5.4,5.4-5.4C27.2,8.2,29.6,10.6,29.6,13.6
		L29.6,13.6z"/>
	<path class="st1" d="M27,28l19,35.6h-27C18.9,63.7,29.7,56.7,27,28L27,28z"/>
	<path class="st0" d="M68.9,19.6l19.6,38.2H60.6C60.6,57.9,71.7,50.4,68.9,19.6L68.9,19.6z"/>
	<path class="st2" d="M94,2.4c-0.7-2.6-5.1-2.3-7.1-1.8c-0.8,0.2-1.5,0.6-2.1,1.1c-0.3,0.2-0.5,0.5-0.5,0.7
		c-0.1,0.2-0.3,0.4-0.7,0.7c-1.3,1.2-2.7,2.3-4.1,3.3c-4.7,3.6-9.8,6.5-15.1,9.1c-17.9,8.6-37.9,10-57,4.7c-1.9-0.5-4.8-0.5-6.5,0.8
		c-1.7,1.3,0.5,2.6,1.7,2.9c21.8,6,44.6,4.7,65.4-4.1c6.7-2.8,13.1-6.6,19-10.9C88.1,8.2,94.4,4.1,94,2.4L94,2.4z"/>
	<path class="st2" d="M49.6,11.7c0,3-2.4,5.5-5.5,5.5c-3,0-5.5-2.4-5.5-5.5c0-3,2.5-5.5,5.5-5.5C47.2,6.2,49.6,8.7,49.6,11.7
		L49.6,11.7z"/>
	<path class="st2" d="M46.5,26.6l28.4,57.2H34.6C34.6,83.8,50.6,72.6,46.5,26.6L46.5,26.6z"/>
</g>
</svg>
