<?xml version="1.0" encoding="utf-8"?>
<!-- Generator: Adobe Illustrator 16.0.0, SVG Export Plug-In . SVG Version: 6.00 Build 0)  -->
<!DOCTYPE svg PUBLIC "-//W3C//DTD SVG 1.1//EN" "http://www.w3.org/Graphics/SVG/1.1/DTD/svg11.dtd">
<svg version="1.1" id="레이어_1" xmlns="http://www.w3.org/2000/svg" xmlns:xlink="http://www.w3.org/1999/xlink" x="0px"
	 y="0px" width="104.75px" height="45px" viewBox="0 0 104.75 45" enable-background="new 0 0 104.75 45" xml:space="preserve">
<g>
	<g>
		<path fill="#BD5C85" d="M36.474,3.038c0,1.593-1.295,2.886-2.886,2.886c-1.596,0-2.89-1.292-2.89-2.886
			c0-1.595,1.293-2.891,2.89-2.891C35.179,0.146,36.474,1.442,36.474,3.038L36.474,3.038z"/>
		<path fill="#DF98B4" d="M15.778,7.196c0,1.595-1.293,2.891-2.89,2.891C11.294,10.087,10,8.791,10,7.196s1.293-2.888,2.888-2.888
			C14.484,4.308,15.778,5.601,15.778,7.196L15.778,7.196z"/>
		<path fill="#DF98B4" d="M14.348,14.968l10.242,19.193H10.03C10.03,34.162,15.812,30.399,14.348,14.968L14.348,14.968z"/>
		<path fill="#BD5C85" d="M36.937,10.447l10.534,20.593H32.493C32.493,31.041,38.442,27.003,36.937,10.447L36.937,10.447z"/>
		<path fill="#862162" d="M50.454,1.153c-0.374-1.397-2.773-1.235-3.833-0.989c-0.421,0.098-0.811,0.299-1.14,0.577
			c-0.156,0.129-0.251,0.254-0.296,0.373c-0.069,0.086-0.18,0.209-0.358,0.377c-0.7,0.64-1.444,1.227-2.193,1.801
			c-2.518,1.922-5.261,3.517-8.115,4.883c-9.666,4.621-20.39,5.369-30.694,2.556c-1.046-0.286-2.575-0.286-3.481,0.41
			c-0.928,0.715,0.251,1.388,0.914,1.568c11.739,3.205,24.021,2.542,35.25-2.187c3.617-1.525,7.075-3.532,10.237-5.858
			C47.261,4.282,50.697,2.074,50.454,1.153L50.454,1.153z"/>
		<path fill="#862162" d="M26.547,6.156c0,1.63-1.319,2.948-2.947,2.948c-1.624,0-2.945-1.318-2.945-2.948
			c0-1.626,1.321-2.944,2.945-2.944C25.228,3.211,26.547,4.529,26.547,6.156L26.547,6.156z"/>
		<path fill="#862162" d="M24.902,14.217L40.188,45H18.456C18.456,45,27.085,38.97,24.902,14.217L24.902,14.217z"/>
	</g>
	<g>
		<g>
			<path fill="#989CFF" d="M65.92,11.668c-1.689,0-2.787-0.823-2.787-2.807V2.171h12.75v9.498H65.92z M81.498,18.867H67.397
				c-1.688,0-2.786-0.823-2.786-2.808v-2.807h3.25v3.377c0,0.634,0.19,0.76,0.718,0.76h12.918V18.867z M72.632,3.648h-6.247v5.783
				c0,0.634,0.188,0.76,0.717,0.76h5.53V3.648z M77.93,13.378V2.065h3.25v11.313H77.93z"/>
			<path fill="#989CFF" d="M87.386,5.632h5.932V2.171h3.25v2.068h2.47V2.065h3.25v11.313h-3.25V9.621h-2.47v2.259h-9.646
				c-1.689,0-2.787-0.823-2.787-2.808V2.171h3.25V5.632z M102.604,18.867h-14.1c-1.689,0-2.786-0.823-2.786-2.808v-2.807h3.25v3.377
				c0,0.634,0.19,0.76,0.717,0.76h12.918V18.867z M93.317,10.402V7.109h-5.932v2.533c0,0.633,0.191,0.759,0.718,0.759H93.317z
				 M96.568,5.716v2.428h2.47V5.716H96.568z"/>
		</g>
		<g>
			<path fill="#989CFF" d="M71.742,42.935h-8.609V20.56h8.609c6.748,0,10.827,4.919,10.827,11.188
				C82.569,38.016,78.49,42.935,71.742,42.935z M69.942,23.35h-2.039v16.796h2.039c5.069,0,7.917-2.729,7.917-8.398
				S75.012,23.35,69.942,23.35z"/>
			<path fill="#989CFF" d="M84.969,42.935V20.56h4.739v19.586h12.896v2.789H84.969z"/>
		</g>
	</g>
</g>
</svg>
